<?xml version="1.0" standalone="no"?>
<!DOCTYPE svg PUBLIC "-//W3C//DTD SVG 20010904//EN"
 "http://www.w3.org/TR/2001/REC-SVG-20010904/DTD/svg10.dtd">
<svg version="1.0" xmlns="http://www.w3.org/2000/svg"
 width="1252.000000pt" height="1248.000000pt" viewBox="0 0 1252.000000 1248.000000"
 preserveAspectRatio="xMidYMid meet">

<g transform="translate(0.000000,1248.000000) scale(0.100000,-0.100000)"
fill="#FA7C54" stroke="none">
<path d="M5403 10584 c-22 -9 -31 -19 -27 -29 5 -11 10 -13 19 -5 7 6 30 19
51 30 34 17 36 19 14 19 -14 0 -39 -7 -57 -15z"/>
<path d="M5008 10563 c7 -3 16 -2 19 1 4 3 -2 6 -13 5 -11 0 -14 -3 -6 -6z"/>
<path d="M4925 10550 c-3 -5 -2 -10 4 -10 5 0 13 5 16 10 3 6 2 10 -4 10 -5 0
-13 -4 -16 -10z"/>
<path d="M5170 10550 c20 -13 33 -13 25 0 -3 6 -14 10 -23 10 -15 0 -15 -2 -2
-10z"/>
<path d="M5285 10530 c-3 -5 1 -10 9 -10 8 0 18 5 21 10 3 6 -1 10 -9 10 -8 0
-18 -4 -21 -10z"/>
<path d="M5565 10520 c-22 -4 -43 -6 -46 -4 -4 2 -14 -5 -24 -16 -21 -23 -110
-29 -118 -7 -3 9 -7 9 -19 0 -17 -14 -174 -20 -283 -11 -38 4 -58 4 -42 2 59
-11 21 -29 -87 -41 -30 -3 -51 -1 -55 6 -5 7 -23 1 -54 -19 -26 -17 -54 -30
-62 -30 -36 0 -131 -54 -187 -107 -69 -66 -149 -174 -182 -248 -27 -59 -51
-143 -44 -151 3 -3 20 10 38 28 20 20 35 28 37 21 7 -19 -50 -95 -147 -198
-126 -134 -178 -252 -135 -309 13 -18 15 -18 42 1 44 31 53 35 53 25 0 -21
-90 -120 -119 -132 -29 -12 -33 -10 -77 29 -51 44 -88 60 -112 45 -8 -5 -27
-32 -42 -59 -15 -28 -42 -58 -59 -68 -17 -10 -45 -32 -62 -48 -17 -16 -37 -29
-44 -29 -8 0 -30 -20 -50 -45 -68 -83 -89 -90 -256 -90 l-146 0 -59 -46 c-33
-26 -179 -106 -329 -182 -148 -75 -292 -150 -320 -166 -55 -32 -158 -116 -293
-238 -92 -84 -145 -131 -202 -179 -110 -93 -136 -124 -170 -201 -61 -142 -123
-277 -205 -449 -48 -100 -64 -146 -70 -195 -17 -157 -58 -303 -120 -429 -18
-36 -84 -166 -146 -290 -63 -124 -127 -254 -143 -290 -51 -113 -115 -243 -152
-310 -72 -128 -68 -104 -55 -294 21 -309 28 -370 51 -431 58 -161 70 -247 70
-527 0 -167 -2 -191 -21 -235 -91 -212 -126 -510 -78 -658 27 -80 75 -138 134
-161 50 -19 107 -14 135 11 9 8 19 15 23 15 3 0 17 -35 31 -77 13 -43 34 -104
45 -136 20 -54 21 -61 6 -130 -8 -39 -15 -81 -15 -92 0 -33 65 -198 131 -331
36 -73 58 -128 53 -133 -5 -5 -61 -21 -124 -36 -195 -46 -260 -76 -315 -150
-31 -40 -36 -106 -11 -134 22 -24 114 -57 299 -106 31 -8 81 -21 110 -29 235
-64 402 -107 492 -126 33 -6 73 -16 89 -21 22 -7 37 -4 67 13 36 20 43 21 141
10 204 -23 317 -32 558 -42 299 -13 377 -30 312 -67 -18 -10 -31 -22 -29 -26
3 -9 66 -31 357 -124 l155 -50 235 -4 c659 -11 890 0 1070 52 70 20 105 22
525 29 563 9 784 20 1210 60 61 6 169 15 240 20 177 12 230 20 433 61 87 17
115 19 170 10 37 -5 104 -15 150 -20 45 -6 119 -16 165 -22 45 -5 111 -15 147
-20 77 -11 399 -57 485 -69 33 -4 110 -15 170 -24 102 -14 146 -21 310 -46 33
-5 96 -14 140 -20 44 -7 103 -15 130 -20 28 -5 73 -11 100 -15 28 -3 97 -28
155 -55 127 -60 236 -100 270 -100 27 0 122 19 242 49 42 10 109 35 150 54
l73 35 110 -9 c61 -5 164 -13 230 -19 66 -6 141 -10 166 -10 36 0 51 -5 69
-25 47 -50 175 -74 420 -77 124 -1 182 2 198 11 25 14 21 31 -9 31 -10 0 -19
4 -19 9 0 5 -17 15 -37 21 -52 17 -55 21 -41 58 11 28 10 34 -12 58 -39 40
-85 55 -215 65 -66 5 -140 11 -165 14 -25 3 -128 10 -230 16 -102 6 -201 14
-220 18 l-34 7 61 46 c113 87 186 188 200 275 9 53 -12 87 -77 124 -33 19 -58
39 -57 44 2 6 61 39 131 75 80 41 132 73 136 85 5 12 43 37 99 64 71 34 103
57 142 99 145 159 279 383 343 574 39 114 56 217 63 374 6 134 5 144 -16 177
-40 65 -183 158 -245 160 -65 2 -267 -159 -313 -248 -40 -76 -138 -208 -174
-235 -23 -16 -66 -36 -97 -45 -143 -39 -171 -51 -322 -144 -138 -85 -205 -111
-290 -111 -76 0 -90 -6 -175 -71 -80 -61 -111 -71 -172 -54 -138 37 -273 89
-273 104 0 9 19 36 43 61 23 25 60 65 81 90 22 25 75 84 118 132 43 47 88 98
99 112 l20 25 -78 88 c-42 48 -89 99 -103 113 -50 51 -442 468 -540 575 -30
33 -62 67 -70 75 -31 31 -180 199 -274 310 -54 63 -108 126 -120 140 -19 22
-106 131 -371 465 -120 151 -230 252 -468 429 -63 47 -76 60 -66 72 6 8 18 14
26 14 7 0 43 9 78 20 36 11 93 28 128 39 234 71 296 94 302 111 5 17 227 199
388 319 31 24 58 48 58 55 1 6 2 28 3 49 l1 39 138 55 c102 41 141 61 147 77
10 28 1 49 -20 43 -22 -6 -35 5 -102 88 -68 84 -148 162 -179 174 -30 11 -56
2 -349 -114 -135 -53 -326 -128 -425 -167 -99 -39 -184 -75 -189 -79 -6 -5
-16 -9 -23 -9 -7 0 -35 -9 -61 -21 -52 -23 -85 -37 -119 -50 -13 -5 -35 -14
-50 -20 -16 -7 -37 -15 -48 -19 -24 -9 -58 -23 -105 -43 -19 -9 -55 -23 -80
-33 -48 -18 -72 -34 -52 -34 6 0 24 5 39 11 43 17 59 24 178 69 61 23 119 46
130 50 11 4 58 22 105 40 47 18 94 36 105 40 42 17 281 109 655 251 58 22 129
52 159 65 30 14 57 22 61 17 5 -4 4 -30 0 -58 -5 -27 -9 -71 -9 -97 -1 -27 -5
-48 -10 -48 -5 0 -31 23 -58 50 -61 63 -97 72 -140 36 -84 -71 -139 -212 -198
-511 -17 -84 -27 -98 -80 -114 -16 -5 -61 -19 -100 -31 -38 -12 -83 -25 -100
-30 -16 -5 -61 -18 -100 -30 -38 -12 -113 -34 -165 -50 -123 -37 -199 -60
-340 -103 -63 -19 -155 -47 -205 -62 -126 -37 -268 -80 -350 -105 -38 -12 -83
-25 -100 -30 -16 -5 -77 -23 -135 -40 -58 -17 -163 -49 -235 -70 -71 -21 -177
-53 -235 -70 -58 -17 -118 -35 -135 -40 -16 -5 -77 -23 -135 -40 -452 -136
-500 -148 -500 -133 0 23 97 191 125 218 16 15 53 35 65 35 21 0 145 64 267
137 132 79 147 85 303 133 58 17 115 35 127 40 13 5 55 12 95 16 80 7 111 19
148 59 42 45 72 55 165 55 67 0 93 4 113 18 28 19 231 107 286 124 96 29 144
38 206 38 70 0 83 7 55 30 -11 9 -35 11 -78 7 l-63 -6 -28 45 -29 46 18 84
c22 105 16 131 -60 253 -39 63 -79 109 -147 171 -92 84 -131 110 -168 110 -10
0 -65 -16 -122 -36 -57 -20 -110 -38 -118 -40 -14 -5 -68 37 -175 135 -80 74
-151 120 -220 142 -65 22 -149 29 -163 14 -15 -15 52 -112 111 -160 231 -189
228 -185 208 -223 -5 -9 -30 -60 -55 -113 -54 -112 -104 -169 -276 -312 l-115
-97 -135 -44 c-120 -39 -396 -149 -442 -176 -22 -13 -88 -13 -108 0 -10 6 -15
25 -15 55 -1 52 -16 70 -117 136 -70 45 -99 47 -208 16 -35 -11 -56 -13 -60
-6 -4 5 -1 49 6 97 17 113 17 201 -1 282 -31 135 -35 172 -25 264 19 177 56
275 143 372 96 107 111 139 87 185 -9 16 -6 23 16 42 19 16 27 35 31 67 5 52
-10 94 -57 159 -24 33 -34 40 -41 30 -9 -16 -7 -18 -39 46 -13 28 -37 69 -52
92 -29 42 -24 63 9 42 10 -6 38 -36 63 -65 24 -30 61 -66 82 -81 36 -25 42
-25 136 -21 84 5 107 2 170 -18 81 -27 113 -29 163 -13 52 18 77 46 94 108 25
91 32 98 94 113 56 14 56 14 59 55 3 39 6 43 56 67 30 15 59 33 66 41 9 11 19
10 62 -12 93 -47 159 -29 199 54 20 41 21 55 16 154 -7 124 -10 119 86 175 60
35 117 81 117 95 0 3 -17 18 -38 32 -35 23 -39 23 -49 8 -9 -13 -15 -14 -29
-5 -27 16 -30 44 -5 44 15 0 19 6 18 28 -2 23 2 27 21 25 16 -2 22 3 22 16 0
10 7 24 16 31 46 39 106 196 130 339 32 196 6 379 -77 544 -66 132 -182 283
-318 415 -35 34 -62 64 -60 67 11 11 76 -17 106 -45 73 -69 45 -14 -48 94 -42
48 -84 86 -106 96 -41 17 -152 23 -218 10z m175 -30 c0 -5 7 -10 15 -10 8 0
15 -4 15 -10 0 -14 -33 -13 -48 2 -16 16 -15 28 3 28 8 0 15 -4 15 -10z m-755
-880 c4 -6 -10 -10 -35 -10 -44 0 -105 -34 -145 -81 -57 -67 -94 -216 -75
-301 13 -59 48 -158 62 -172 11 -13 10 -36 -1 -36 -12 0 -45 71 -71 154 -45
137 -2 309 99 397 24 22 52 39 62 39 10 0 21 5 24 10 3 6 21 10 40 10 19 0 37
-4 40 -10z m53 -55 c-3 -3 -13 7 -23 22 l-17 28 23 -22 c12 -12 20 -25 17 -28z
m-30 -121 c-20 -18 -41 -34 -45 -34 -5 0 -24 -13 -42 -28 l-34 -28 18 -33 c10
-21 13 -37 7 -43 -13 -13 -45 57 -37 81 5 16 75 71 90 71 3 0 20 13 38 30 17
16 34 27 36 24 3 -3 -11 -21 -31 -40z m557 -345 c27 -25 82 -74 120 -109 77
-69 85 -80 58 -80 -15 0 -206 185 -253 246 -14 18 -14 18 5 4 10 -8 42 -36 70
-61z m410 -120 c14 -6 7 -8 -26 -8 -26 -1 -62 5 -80 13 -33 14 -33 15 26 9 33
-3 69 -9 80 -14z m-1133 -222 c3 -104 2 -123 -8 -105 -19 35 -28 207 -13 243
16 38 17 31 21 -138z m1169 123 c10 -6 19 -19 19 -30 0 -41 -155 -140 -220
-140 -39 0 -70 16 -70 36 0 74 199 172 271 134z m149 -51 c0 -17 -51 -57 -112
-88 -16 -8 -28 -18 -28 -23 0 -13 -28 -9 -33 5 -7 20 11 44 56 75 55 38 117
55 117 31z m-3141 -397 c-124 -129 -165 -175 -270 -302 -112 -137 -118 -144
-125 -137 -6 5 13 48 25 57 4 3 18 21 31 40 41 60 142 182 215 259 76 80 196
184 204 176 2 -3 -33 -45 -80 -93z m2346 88 c-3 -5 -15 -10 -26 -10 -11 0 -17
5 -14 10 3 6 15 10 26 10 11 0 17 -4 14 -10z m-60 -20 c-3 -5 -11 -10 -16 -10
-6 0 -7 5 -4 10 3 6 11 10 16 10 6 0 7 -4 4 -10z m-35 -20 c0 -5 -4 -10 -8
-10 -5 0 -18 -9 -31 -21 -12 -12 -25 -18 -28 -15 -7 6 47 56 60 56 4 0 7 -4 7
-10z m192 -128 c-14 -4 -84 43 -76 51 3 3 24 -6 46 -21 22 -14 36 -28 30 -30z
m-92 35 c0 -2 -17 -19 -37 -38 -22 -20 -30 -24 -18 -9 25 31 55 57 55 47z
m-1010 -58 c0 -6 -4 -7 -10 -4 -5 3 -10 11 -10 16 0 6 5 7 10 4 6 -3 10 -11
10 -16z m1140 11 c0 -5 -2 -10 -4 -10 -3 0 -8 5 -11 10 -3 6 -1 10 4 10 6 0
11 -4 11 -10z m-1362 -42 c32 -71 61 -162 113 -360 19 -71 39 -129 60 -170 11
-22 11 -38 1 -38 -19 0 -69 128 -100 255 -6 22 -16 60 -22 85 -6 25 -16 63
-22 85 -5 22 -14 48 -19 57 -5 10 -9 25 -9 33 0 8 -4 24 -10 35 -5 11 -15 29
-20 40 -6 11 -6 20 -1 20 5 0 18 -19 29 -42z m-698 22 c0 -5 -5 -10 -11 -10
-5 0 -7 5 -4 10 3 6 8 10 11 10 2 0 4 -4 4 -10z m940 -24 c0 -8 9 -31 19 -53
11 -21 35 -71 55 -111 67 -139 148 -210 227 -199 34 4 38 3 28 -9 -7 -9 -31
-14 -61 -14 -104 0 -187 91 -247 270 -12 36 -26 73 -31 82 -13 23 -13 48 0 48
6 0 10 -6 10 -14z m-1002 -48 c-12 -18 -30 -41 -38 -51 -28 -33 -104 -174
-125 -232 -5 -12 -9 -15 -12 -8 -6 16 89 209 122 248 65 77 94 100 53 43z
m1462 -278 c0 -11 3 -20 8 -20 30 0 44 -149 17 -184 -18 -24 -33 -12 -17 14
25 41 24 92 -3 144 -27 54 -30 66 -15 66 6 0 10 -9 10 -20z m-388 -48 c11 -26
25 -63 30 -82 14 -53 38 -252 31 -263 -10 -17 -22 17 -28 83 -7 80 -34 203
-56 255 -32 78 -13 84 23 7z m131 -239 c-25 -58 -34 -139 -41 -373 -4 -118
-10 -208 -13 -200 -9 22 -29 206 -29 267 0 54 15 134 31 165 5 10 9 33 9 52 0
38 15 81 38 109 22 25 23 21 5 -20z m-2068 -80 c-4 -10 -11 -34 -16 -53 -4
-19 -12 -53 -18 -75 -43 -162 -50 -248 -25 -297 9 -17 53 -70 98 -118 115
-121 126 -148 126 -311 0 -126 1 -134 30 -190 16 -33 26 -59 22 -59 -15 0 -48
44 -71 94 -19 42 -22 62 -19 165 4 144 0 153 -122 286 -92 101 -120 145 -120
194 0 27 20 124 40 196 7 22 14 52 17 68 3 15 9 30 14 33 5 3 9 14 9 25 0 22
21 59 33 59 5 0 6 -8 2 -17z m3578 -246 c35 -19 96 -66 182 -142 107 -93 114
-105 71 -105 -16 0 -59 29 -123 83 -54 45 -124 102 -155 127 -32 25 -58 49
-58 53 0 10 52 0 83 -16z m-2873 3 c0 -5 -5 -10 -11 -10 -5 0 -7 5 -4 10 3 6
8 10 11 10 2 0 4 -4 4 -10z m-28 -65 c-12 -24 -23 -52 -41 -97 -4 -13 -13 -35
-20 -50 -6 -16 -16 -40 -22 -55 -7 -16 -15 -37 -19 -48 -4 -11 -12 -32 -19
-47 -6 -16 -16 -40 -22 -55 -7 -16 -15 -37 -20 -48 -26 -67 -137 -397 -159
-475 -22 -80 -29 -90 -29 -43 -1 23 4 45 9 48 6 3 10 18 10 32 0 24 10 63 30
118 4 11 17 52 29 90 12 39 26 79 31 90 4 11 13 36 20 55 15 43 24 66 40 105
7 17 16 39 20 50 13 32 58 140 90 210 50 112 73 156 78 151 3 -3 0 -17 -6 -31z
m3503 -135 c3 -6 -4 -10 -17 -10 -29 -1 -115 -23 -124 -33 -4 -4 -16 -7 -26
-7 -10 0 -26 -4 -36 -9 -37 -19 -90 -31 -135 -31 -31 0 -49 -5 -55 -15 -11
-20 -44 -8 -40 14 3 12 21 17 83 23 95 7 143 17 151 29 3 5 14 9 25 9 10 0 27
4 37 9 44 23 128 36 137 21z m-2535 -73 c0 -24 -3 -28 -10 -17 -13 20 -13 63
0 55 6 -3 10 -21 10 -38z m20 -76 c0 -15 4 -31 8 -36 5 -6 14 -35 21 -65 7
-30 16 -64 20 -75 5 -11 18 -51 30 -90 21 -67 25 -79 49 -135 5 -14 22 -56 37
-95 30 -80 60 -149 108 -252 6 -13 8 -26 5 -29 -6 -5 -30 42 -93 181 -39 86
-53 119 -70 165 -9 25 -21 54 -25 65 -5 11 -19 52 -31 90 -12 39 -25 79 -30
90 -4 11 -10 34 -14 50 -3 17 -11 48 -16 70 -19 73 -22 108 -10 101 6 -4 11
-20 11 -35z m2173 7 c12 -7 24 -15 27 -18 20 -20 119 -50 166 -50 22 0 48 -6
58 -13 16 -12 9 -13 -45 -10 -35 3 -84 11 -108 19 -40 12 -141 70 -141 80 0 8
21 4 43 -8z m596 -100 c8 -18 27 -55 43 -81 28 -48 37 -100 18 -112 -6 -4 -10
7 -10 25 0 16 -4 38 -9 48 -8 15 -61 126 -69 144 -2 5 0 8 5 8 4 0 15 -15 22
-32z m-344 -183 l30 -13 -46 -1 c-100 -2 -229 12 -229 24 0 17 202 8 245 -10z
m-759 -198 c-36 -44 -81 -75 -92 -64 -4 4 4 11 17 16 13 5 42 28 64 50 51 53
56 52 11 -2z m636 -29 c54 -28 52 -27 46 -34 -3 -3 -14 -1 -25 4 -10 6 -33 16
-50 22 -18 7 -33 16 -33 21 0 14 15 11 62 -13z m478 -18 c13 -9 12 -12 -4 -25
-11 -8 -25 -15 -31 -15 -7 0 -26 -7 -44 -16 -53 -27 -57 -10 -5 28 54 40 62
43 84 28z m-1225 -30 c-3 -5 -16 -10 -29 -10 -12 0 -26 -4 -31 -8 -6 -5 -44
-19 -85 -32 -41 -13 -79 -27 -84 -32 -6 -4 -20 -8 -32 -8 -13 0 -26 -4 -29
-10 -3 -5 -17 -10 -30 -10 -13 0 -27 -4 -30 -10 -3 -5 -17 -10 -30 -10 -13 0
-27 -4 -30 -10 -3 -5 -15 -10 -26 -10 -10 0 -19 5 -19 10 0 6 6 10 14 10 11 0
73 22 141 51 11 4 63 22 115 39 52 16 106 34 120 39 35 12 72 13 65 1z m-1053
-188 c33 -285 34 -471 4 -542 -20 -48 -25 -25 -13 65 7 57 7 124 -1 230 -13
167 -16 332 -5 321 4 -4 11 -37 15 -74z m583 28 c-3 -5 -13 -10 -21 -10 -8 0
-12 5 -9 10 3 6 13 10 21 10 8 0 12 -4 9 -10z m-785 -101 c0 -6 -4 -7 -10 -4
-5 3 -10 11 -10 16 0 6 5 7 10 4 6 -3 10 -11 10 -16z m1300 -129 c-14 -10 -36
-25 -50 -32 -14 -7 -27 -15 -30 -18 -15 -15 -162 -91 -167 -86 -2 2 22 19 54
37 53 31 83 49 168 100 40 24 56 23 25 -1z m-1500 -30 c0 -5 -4 -10 -10 -10
-11 0 -101 -42 -145 -68 -138 -81 -183 -109 -265 -168 -112 -80 -176 -130
-248 -199 -71 -66 -224 -222 -233 -237 -5 -7 -10 -10 -13 -7 -3 3 2 14 12 25
9 10 30 37 46 59 55 75 281 291 376 361 119 87 196 134 330 201 100 51 150 65
150 43z m1240 -120 c0 -5 -7 -10 -16 -10 -8 0 -12 5 -9 10 3 6 10 10 16 10 5
0 9 -4 9 -10z m-1130 -15 c0 -2 -17 -12 -37 -22 -89 -41 -370 -203 -460 -264
-23 -16 -45 -29 -48 -29 -4 0 -20 -9 -37 -21 -16 -12 -32 -18 -36 -14 -4 3 1
11 10 16 9 5 23 15 30 22 22 22 197 137 283 187 78 45 116 63 193 96 20 9 44
20 52 24 16 9 50 13 50 5z m1090 0 c0 -7 -72 -36 -77 -31 -3 2 8 11 24 19 29
15 53 21 53 12z m-100 -40 c0 -3 -8 -14 -17 -25 -46 -53 -163 -293 -163 -334
0 -6 -11 -19 -25 -31 -23 -19 -24 -22 -10 -54 11 -24 20 -32 33 -28 66 20 232
70 257 77 17 5 62 18 100 30 39 12 85 26 103 31 17 5 47 13 65 18 17 5 64 19
102 31 39 12 84 25 100 30 17 5 77 23 135 40 58 18 121 36 140 40 19 5 53 14
75 20 22 6 56 15 75 20 19 5 45 12 58 15 14 5 22 3 22 -4 0 -6 -9 -11 -19 -11
-11 0 -23 -4 -26 -10 -3 -5 -16 -10 -29 -10 -12 0 -26 -4 -31 -8 -6 -5 -44
-19 -85 -32 -41 -12 -95 -30 -120 -38 -25 -8 -58 -18 -75 -22 -16 -5 -61 -18
-100 -30 -38 -12 -85 -26 -102 -31 -32 -9 -71 -20 -135 -38 -18 -5 -69 -19
-113 -31 -44 -12 -96 -26 -115 -31 -19 -6 -46 -13 -59 -16 -13 -3 -42 -30 -65
-59 -22 -30 -47 -54 -54 -54 -8 0 -26 9 -40 21 -23 17 -35 20 -79 14 -89 -11
-154 15 -227 88 -43 44 -88 75 -149 106 -49 25 -91 49 -93 53 -7 11 -7 11 68
-16 100 -37 133 -54 182 -97 24 -21 50 -39 58 -39 18 0 74 59 82 87 4 12 20
31 35 42 15 11 63 71 106 133 84 121 114 158 127 158 4 0 8 -2 8 -5z m-3978
-143 c2 -4 32 -32 68 -62 35 -30 71 -61 78 -68 8 -7 30 -25 50 -40 21 -15 39
-29 42 -33 13 -15 130 -87 170 -106 58 -26 163 -46 203 -38 l32 6 -34 -16
c-41 -19 -65 -19 -135 -1 -132 35 -225 97 -411 278 -49 48 -85 88 -78 88 6 0
13 -3 15 -8z m588 -14 c227 -46 461 -58 542 -27 14 6 35 9 45 6 17 -4 17 -4
-2 -11 -11 -4 -29 -11 -40 -16 -51 -20 -108 -30 -176 -30 -90 1 -264 29 -374
60 -22 6 -50 14 -63 17 -12 3 -25 10 -29 16 -4 6 4 7 23 2 16 -4 49 -12 74
-17z m635 -8 c-3 -5 -12 -10 -18 -10 -7 0 -6 4 3 10 19 12 23 12 15 0z m4059
-94 c17 -67 -30 -254 -105 -423 -10 -24 -19 -45 -19 -48 0 -6 -48 -111 -110
-240 -26 -55 -64 -136 -85 -180 -134 -288 -177 -377 -182 -372 -2 3 1 17 8 33
6 16 15 38 19 49 18 48 38 96 95 230 8 19 21 50 29 68 13 30 26 59 90 200 13
28 38 86 56 127 18 41 41 93 51 116 30 67 59 145 85 224 13 41 28 89 34 106 5
17 10 54 10 82 0 54 13 70 24 28z m-3810 -733 c-38 -76 -123 -96 -364 -82
-315 18 -306 34 18 34 214 0 240 2 272 19 48 26 59 44 60 92 0 56 13 64 24 16
7 -32 5 -48 -10 -79z m3975 -585 c5 -13 19 -49 31 -81 31 -79 94 -146 216
-228 57 -38 106 -69 108 -69 25 0 219 -157 346 -280 199 -193 296 -259 650
-437 123 -63 233 -121 243 -131 27 -24 120 -163 113 -169 -3 -3 -33 8 -68 25
-84 40 -172 68 -298 95 -94 19 -134 22 -370 21 -190 0 -296 -5 -375 -17 -137
-20 -278 -44 -330 -56 -173 -42 -168 -41 -184 -27 -15 13 -110 28 -261 41 -36
4 -71 10 -78 14 -8 5 13 28 65 72 42 35 85 80 95 101 28 53 34 105 15 126 -8
9 -20 43 -26 75 -20 110 -79 198 -153 230 -72 31 -87 35 -176 48 -74 10 -119
11 -230 1 -153 -14 -202 -15 -202 -6 0 11 158 179 356 380 209 210 198 203
419 270 89 28 84 28 94 2z m1516 -1938 c116 -5 315 -14 444 -20 128 -6 241
-15 251 -20 20 -10 46 -67 36 -77 -6 -6 -110 0 -491 27 -71 5 -206 14 -300 20
-93 6 -217 15 -274 21 -58 5 -145 10 -195 10 -159 2 -200 24 -86 45 68 13 225
12 615 -6z"/>
<path d="M4905 10470 c-3 -5 1 -10 9 -10 8 0 18 5 21 10 3 6 -1 10 -9 10 -8 0
-18 -4 -21 -10z"/>
<path d="M7125 6610 c-3 -6 1 -7 9 -4 18 7 21 14 7 14 -6 0 -13 -4 -16 -10z"/>
</g>
</svg>
