<svg version="1.1" id="Layer_1" xmlns="http://www.w3.org/2000/svg" xmlns:xlink="http://www.w3.org/1999/xlink" x="0px" y="0px"
	 width="100%" viewBox="0 0 1330 1200" enable-background="new 0 0 1330 1200" xml:space="preserve">

<path fill="#FA7C55" opacity="1.000000" stroke="none"
	d="
M504.001038,67.774605
	C530.654907,68.234673 556.811584,68.568504 582.961243,69.196754
	C594.631287,69.477127 606.258240,70.478035 617.110596,75.476753
	C635.568848,83.978844 644.718811,99.678345 648.842407,118.443420
	C651.507874,130.573029 653.115784,143.079712 653.714722,155.488983
	C655.007385,182.272903 655.348022,209.102829 656.071899,235.914093
	C657.141968,275.548431 658.193176,315.183289 659.277893,354.817230
	C660.184875,387.954803 661.150024,421.090759 662.050110,454.228485
	C663.140137,494.361328 663.985657,534.502380 665.379761,574.624451
	C665.794067,586.548340 666.480713,598.705872 669.186035,610.254211
	C674.148804,631.438782 687.455994,642.062134 709.192871,643.814941
	C722.123840,644.857666 735.115356,645.320007 748.089478,645.625793
	C796.218811,646.760254 844.348755,648.215698 892.485474,648.546448
	C917.952209,648.721436 943.402588,646.533264 968.008545,638.946716
	C981.871643,634.672424 995.003906,629.131409 1003.673096,616.565063
	C1016.363525,598.169495 1010.538635,579.615845 989.526123,571.677368
	C975.008667,566.192566 959.781311,564.278381 944.433044,564.083496
	C913.952393,563.696350 883.459045,564.200134 852.981934,563.685913
	C830.512634,563.306824 808.035156,562.287476 785.609558,560.816772
	C768.825195,559.716125 756.300842,550.724548 747.246765,536.818176
	C737.190369,521.372314 733.712708,503.995636 733.158081,485.951202
	C732.190674,454.479523 731.555176,422.997833 730.728271,391.521667
	C729.748230,354.219574 728.683167,316.919739 727.709534,279.617493
	C726.683838,240.316025 725.717590,201.013016 724.736084,161.710403
	C724.407532,148.553818 723.501099,135.372345 724.017273,122.247818
	C724.359009,113.559998 725.620422,104.553139 728.479248,96.392990
	C734.549316,79.066856 749.026245,71.929863 766.024536,68.968498
	C769.771973,68.315628 773.638123,68.098450 777.449768,68.096153
	C857.110535,68.048080 936.771729,68.209732 1016.431641,67.948944
	C1035.122437,67.887756 1049.442871,75.882828 1061.246338,89.336525
	C1077.185669,107.504280 1082.893555,129.501236 1083.742798,153.023346
	C1084.169556,164.841721 1083.704102,176.689789 1083.977295,188.516693
	C1084.996460,232.652863 1086.104858,276.787140 1087.276611,320.919525
	C1088.085693,351.391998 1089.135620,381.858063 1089.929077,412.330902
	C1090.787842,445.307373 1091.353149,478.291687 1092.277344,511.266113
	C1092.888672,533.075378 1094.080933,554.868164 1094.706909,576.677185
	C1096.125366,626.098267 1072.427490,660.627502 1030.293701,683.834167
	C1009.077637,695.519653 985.821838,700.235291 961.988159,703.091309
	C926.312256,707.366394 890.511719,707.142395 854.696045,707.060181
	C803.034119,706.941528 751.370850,707.033325 699.711182,706.637573
	C685.092285,706.525513 670.367065,705.902466 655.896790,703.970154
	C631.021851,700.648682 615.914368,685.107971 609.380981,661.634949
	C606.105774,649.867737 604.518677,637.505249 603.393860,625.299011
	C602.188599,612.219238 602.390625,599.007751 602.036499,585.852112
	C600.929871,544.735962 599.866150,503.618591 598.755798,462.502502
	C597.807007,427.367218 596.804688,392.233337 595.848511,357.098236
	C594.801697,318.633240 593.806091,280.166870 592.737061,241.702484
	C592.241882,223.887756 591.961853,206.056717 590.920715,188.271912
	C590.408875,179.529587 589.138062,170.675415 586.888550,162.223785
	C582.262024,144.841980 570.247314,134.919922 552.648376,132.175400
	C544.461182,130.898636 536.106628,130.382294 527.811096,130.165314
	C481.014954,128.941208 434.217804,127.413086 387.412445,127.029236
	C364.142975,126.838394 340.805115,128.244110 317.592682,130.105667
	C300.944550,131.440781 284.838440,136.112030 269.819214,143.773743
	C261.605408,147.963806 255.125229,154.089737 250.728333,162.268921
	C241.632797,179.188538 246.872330,194.280243 264.394501,202.107910
	C278.677582,208.488586 293.883575,210.508011 309.220306,210.777252
	C350.033813,211.493713 390.859192,211.510773 431.675140,212.122269
	C444.982635,212.321625 458.366760,212.757797 471.555084,214.386993
	C495.361633,217.327911 509.800720,232.412460 516.983337,254.135559
	C520.747986,265.521332 522.956299,277.787750 523.577026,289.775055
	C525.135681,319.878540 525.384094,350.049713 526.170654,380.193420
	C527.205017,419.828094 528.255066,459.462372 529.291443,499.096985
	C529.940186,523.910034 530.590515,548.722961 531.214294,573.536682
	C531.867371,599.516052 532.734070,625.494019 532.970398,651.477478
	C533.037720,658.872925 531.952820,666.466187 530.147034,673.654907
	C525.432251,692.423767 512.093872,702.127014 493.841705,705.779236
	C489.146484,706.718750 484.253113,707.008667 479.449829,707.016541
	C399.622589,707.147461 319.794464,707.025879 239.968521,707.393372
	C225.717667,707.458984 213.951202,702.467651 203.438416,693.750183
	C186.999069,680.118225 178.564987,661.885925 175.117615,641.266052
	C173.725418,632.938904 173.309387,624.389526 173.140152,615.927490
	C172.527191,585.276245 172.471725,554.612549 171.714233,523.965698
	C170.611145,479.337555 169.050034,434.720825 167.748672,390.097351
	C167.102844,367.952332 166.640137,345.802063 166.024872,323.656097
	C164.965424,285.522766 164.193695,247.376785 162.614883,209.264542
	C161.835052,190.439499 162.223663,171.859467 168.727402,154.063141
	C176.881622,131.750610 191.994003,114.642387 211.137192,101.000816
	C234.968140,84.018692 262.089417,76.627159 290.770111,72.820702
	C330.743591,67.515488 370.877716,68.305801 410.995819,67.948189
	C441.828979,67.673340 472.665802,67.812958 504.001038,67.774605
z"/>
<path fill="#A6775F" opacity="1.000000" stroke="none"
	d="
M195.449265,883.555542
	C214.231857,903.183472 221.506592,939.865845 194.258194,969.940613
	C195.925934,971.240112 197.543808,972.545166 199.206833,973.789978
	C223.952637,992.313171 233.969070,1017.190857 227.559143,1047.091553
	C221.051086,1077.450073 201.099854,1095.951050 170.762726,1102.832397
	C166.269836,1103.851562 161.513824,1104.029297 156.877594,1104.045898
	C127.545502,1104.151367 98.212830,1104.122070 68.880402,1104.092896
	C57.861866,1104.081909 52.930851,1099.226074 52.926838,1088.299194
	C52.901318,1018.801208 52.902054,949.303284 52.926754,879.805298
	C52.930485,869.310547 58.117001,864.110840 68.570457,864.094360
	C95.069603,864.052429 121.570396,864.252319 148.067566,864.019104
	C166.587906,863.856140 182.246429,870.149658 195.449265,883.555542
M200.343414,1044.601562
	C207.310852,1017.683594 191.670685,987.103394 156.245255,987.614380
	C132.592743,987.955627 108.930656,987.759766 85.274368,987.591125
	C81.250839,987.562439 80.152351,988.930664 80.170601,992.777893
	C80.296333,1019.266968 80.283409,1045.757080 80.181267,1072.246460
	C80.168137,1075.652954 81.155258,1076.931274 84.720108,1076.912476
	C108.876717,1076.784668 133.036911,1077.057983 157.190781,1076.769043
	C179.209671,1076.505615 193.633331,1065.712280 200.343414,1044.601562
M137.499908,891.677979
	C120.167297,891.678162 102.833183,891.801086 85.503136,891.590515
	C81.268562,891.539062 80.122498,892.960327 80.159874,897.039001
	C80.335533,916.203247 80.362625,935.371399 80.143387,954.534790
	C80.093262,958.916260 81.333626,960.228333 85.768028,960.183289
	C107.264923,959.964539 128.765274,960.097290 150.264389,960.081055
	C170.216370,960.065979 183.271179,948.646973 184.664169,928.759094
	C185.993820,909.775635 175.712326,893.134888 153.494263,891.850464
	C148.509430,891.562317 143.498642,891.723267 137.499908,891.677979
z"/>
<path fill="#A6775F" opacity="1.000000" stroke="none"
	d="
M423.482147,887.534729
	C452.059601,910.305481 467.858368,939.411194 471.136017,975.633667
	C476.871429,1039.017090 427.461975,1099.289185 360.744568,1105.182495
	C298.690674,1110.664062 241.643341,1067.109619 230.414886,1005.211121
	C220.108627,948.396301 253.324432,889.834167 308.097565,870.493713
	C349.199127,855.980652 387.744568,861.767212 423.482147,887.534729
M307.791168,1068.848145
	C309.477814,1069.564209 311.164978,1070.278931 312.851013,1070.996460
	C350.866150,1087.176880 397.494843,1075.831787 423.533875,1044.066284
	C451.285278,1010.211975 450.765839,956.099548 422.370361,922.853638
	C389.834229,884.759583 330.097595,879.344177 290.525879,910.653625
	C239.453476,951.062622 245.520233,1037.887573 307.791168,1068.848145
z"/>
<path fill="#A67760" opacity="1.000000" stroke="none"
	d="
M623.495728,979.488525
	C644.961853,994.763428 655.847778,1015.270569 656.081238,1041.275269
	C656.227844,1057.600708 656.152771,1073.928711 656.094604,1090.255371
	C656.061462,1099.563232 650.772949,1105.594360 642.716003,1105.750977
	C634.468933,1105.911377 628.645691,1099.901245 628.528320,1090.421509
	C628.330078,1074.430176 628.447449,1058.434937 628.469055,1042.441284
	C628.480408,1034.015625 627.393372,1025.841431 623.459167,1018.231079
	C615.999756,1003.801758 603.847900,995.638794 587.980591,995.086914
	C562.853333,994.212769 537.676880,994.804688 512.522400,994.615845
	C508.165955,994.583191 508.792786,997.302734 508.792450,999.927551
	C508.788452,1029.748901 508.873260,1059.570923 508.672882,1089.390991
	C508.649353,1092.890259 507.712921,1096.733276 506.049622,1099.791626
	C503.388580,1104.684448 496.985718,1106.736450 491.673676,1105.380737
	C486.285278,1104.005493 482.092468,1099.346191 481.334869,1093.759888
	C481.134521,1092.282471 481.164856,1090.767700 481.164673,1089.270020
	C481.157196,1019.298096 481.157959,949.326111 481.159363,879.354187
	C481.159393,878.354736 481.136292,877.352478 481.198303,876.356201
	C481.698822,868.310303 487.289307,862.925598 495.086273,862.958252
	C502.337585,862.988647 508.341644,868.596375 508.674988,876.191162
	C508.981567,883.175476 508.785858,890.182312 508.788116,897.179260
	C508.795074,918.670654 508.925171,940.163574 508.682190,961.652222
	C508.631104,966.171753 510.007263,967.225098 514.330688,967.161194
	C530.987061,966.914795 547.649597,967.130615 564.309143,967.041504
	C593.144104,966.887146 611.148499,948.949951 611.316101,920.238831
	C611.397766,906.244873 611.289978,892.249878 611.358154,878.255798
	C611.395996,870.493835 615.716919,864.523804 622.005005,863.227356
	C630.521423,861.471619 638.512451,866.540955 638.704956,875.278381
	C639.111694,893.743347 639.253662,912.274902 638.123413,930.694458
	C637.143982,946.655029 629.669922,960.296936 618.633667,971.892944
	C617.862976,972.702698 617.284912,973.695801 616.276306,975.067444
	C618.747864,976.576721 620.970276,977.933838 623.495728,979.488525
z"/>
<path fill="#F09846" opacity="1.000000" stroke="none"
	d="
M724.995850,1092.851807
	C724.929932,1103.442017 720.711304,1108.888306 712.885742,1108.963623
	C706.955505,1109.020752 702.237915,1105.409912 700.974426,1099.608765
	C700.518433,1097.515381 700.362488,1095.318970 700.361389,1093.169434
	C700.330200,1031.686035 700.346802,970.202576 700.318970,908.719177
	C700.316345,902.963806 701.159058,897.587585 706.704468,894.489624
	C715.487122,889.583069 724.925720,895.855347 724.965332,906.691956
	C725.054260,931.018372 724.995117,955.345398 724.996277,979.672180
	C724.996338,981.480225 724.996277,983.288208 724.996277,985.535400
	C726.989319,985.635376 728.597595,985.785767 730.205811,985.786438
	C762.197205,985.800232 794.189209,985.695984 826.179199,985.907349
	C830.883728,985.938416 832.017456,984.514404 831.981201,980.006287
	C831.783081,955.347900 831.863647,930.687012 831.913818,906.027100
	C831.927429,899.345093 835.333252,894.732239 841.007446,893.295532
	C847.666992,891.609314 854.263367,895.591248 855.836609,902.473145
	C856.386902,904.880432 856.531799,907.424744 856.533325,909.906677
	C856.569702,970.557007 856.566528,1031.207275 856.543030,1091.857666
	C856.542175,1094.013184 856.443176,1096.199707 856.080505,1098.318726
	C854.889893,1105.273926 849.858032,1109.348511 843.176758,1108.939697
	C836.614563,1108.538208 831.982971,1103.711060 831.946289,1096.616333
	C831.830750,1074.289673 831.892456,1051.962036 831.885376,1029.634766
	C831.883728,1024.302856 831.818481,1018.969971 831.906799,1013.639587
	C831.947876,1011.163513 831.130920,1010.017761 828.464355,1010.024719
	C794.476501,1010.113159 760.488403,1010.131958 726.500427,1010.186462
	C726.207581,1010.186890 725.915100,1010.432617 724.996033,1010.844543
	C724.996033,1037.839478 724.996033,1065.106812 724.995850,1092.851807
z"/>
<path fill="#F09846" opacity="1.000000" stroke="none"
	d="
M1199.450195,1105.478882
	C1151.682739,1119.460571 1108.890991,1088.496338 1100.593628,1045.935669
	C1091.358643,998.565369 1128.310059,953.589050 1176.578003,953.831787
	C1193.623047,953.917542 1209.062134,958.732117 1222.744019,968.881653
	C1235.070190,978.025513 1235.405640,989.942871 1223.489624,999.586975
	C1203.035156,1016.141479 1182.426514,1032.505371 1161.888916,1048.957153
	C1153.990723,1055.284180 1146.109985,1061.632690 1137.890015,1068.237427
	C1143.973389,1075.054443 1150.968140,1079.501953 1159.064209,1081.757202
	C1175.813721,1086.423584 1191.990723,1085.610107 1206.971069,1075.544556
	C1213.411377,1071.217163 1220.373901,1072.405151 1224.190918,1078.030884
	C1228.299805,1084.087402 1226.867920,1091.768433 1220.047607,1095.706787
	C1213.602539,1099.428467 1206.593872,1102.173950 1199.450195,1105.478882
M1185.522095,978.918762
	C1145.262451,972.960449 1115.318970,1007.026306 1126.080200,1046.109741
	C1151.622192,1025.673218 1176.958496,1005.401306 1202.294800,985.129395
	C1202.202026,984.565491 1202.109131,984.001587 1202.016357,983.437744
	C1196.807373,981.957458 1191.598511,980.477173 1185.522095,978.918762
z"/>
<path fill="#F09846" opacity="1.000000" stroke="none"
	d="
M937.086182,1001.091187
	C936.172729,990.174866 935.311707,979.722534 934.385864,969.276062
	C933.643005,960.894897 938.012817,954.582458 945.086609,953.945007
	C953.087463,953.223877 958.380066,958.326477 959.043884,967.306091
	C960.075134,981.257019 960.981201,995.221252 962.331055,1009.141968
	C962.690002,1012.843628 963.827209,1016.789856 965.709534,1019.971558
	C977.499817,1039.899414 989.598938,1059.644409 1001.615173,1079.438232
	C1002.023254,1080.110474 1002.637756,1080.657104 1003.624451,1081.809204
	C1006.223938,1077.672607 1008.632507,1073.950439 1010.931702,1070.161987
	C1020.523987,1054.356445 1029.993896,1038.475830 1039.704102,1022.743164
	C1043.052368,1017.318298 1044.503784,1011.520508 1044.955322,1005.287231
	C1045.905640,992.171387 1046.963379,979.063232 1047.994263,965.953247
	C1048.599609,958.251953 1053.670044,953.596252 1061.061890,953.912720
	C1067.872559,954.204346 1072.846069,959.635254 1072.363403,967.139221
	C1071.348145,982.919983 1070.171997,998.697510 1068.643066,1014.435669
	C1067.632080,1024.842163 1061.997559,1033.470215 1056.697266,1042.167725
	C1045.342407,1060.800903 1034.096069,1079.500244 1022.791931,1098.164429
	C1012.528564,1115.110352 994.326416,1115.114746 984.117371,1098.212036
	C971.285034,1076.965820 958.519531,1055.678223 945.522522,1034.532959
	C939.259460,1024.343384 937.467834,1013.172180 937.086182,1001.091187
z"/>
<path fill="#F19D50" opacity="1.000000" stroke="none"
	d="
M549.074524,221.200592
	C548.953308,203.880737 538.450989,194.102722 525.279358,186.426804
	C513.936829,179.816879 501.251984,177.253326 488.358704,176.905869
	C459.071381,176.116638 429.768341,175.791718 400.469513,175.581924
	C370.981445,175.370773 341.490753,175.526993 312.001190,175.522934
	C302.908539,175.521683 293.815887,175.522736 284.723236,175.522736
	C284.695465,174.873306 284.667725,174.223862 284.639984,173.574432
	C289.571320,173.190079 294.496582,172.604843 299.435028,172.454895
	C325.897736,171.651443 352.359680,170.692215 378.829559,170.286987
	C416.971344,169.703064 455.125916,169.052216 493.261414,169.525574
	C504.164642,169.660919 515.556091,172.177979 525.785645,176.069031
	C546.231140,183.845917 557.790833,199.264252 558.901794,221.661148
	C559.817627,240.123978 560.921814,258.581390 561.528931,277.054749
	C562.803894,315.846863 563.369995,354.666443 565.016235,393.441223
	C568.070984,465.392487 567.313904,537.354248 566.469238,609.319885
	C566.203430,631.969360 565.246582,654.611023 564.559631,677.254883
	C564.485657,679.692871 564.100830,682.121399 562.771118,684.608154
	C562.581055,683.451233 562.251953,682.297913 562.221313,681.136780
	C561.477661,652.998535 560.782959,624.859009 560.044434,596.720642
	C559.030579,558.094116 557.971191,519.468750 556.963440,480.842102
	C556.290100,455.035400 555.669861,429.227295 555.030884,403.419739
	C554.012634,362.292938 553.148376,321.161591 551.917053,280.041199
	C551.334167,260.573364 550.052795,241.126389 549.074524,221.200592
z"/>
<path fill="#F19B4B" opacity="1.000000" stroke="none"
	d="
M692.879333,456.182129
	C691.391113,385.089233 689.424622,314.480621 688.620056,243.858734
	C688.178040,205.057022 689.659180,166.232407 690.351501,127.419502
	C690.511841,118.427689 690.975464,109.440918 691.339111,100.453430
	C691.402466,98.888000 691.663818,97.330582 692.775757,95.801994
	C693.053467,101.298096 693.447571,106.791199 693.589783,112.290794
	C694.455200,145.764099 695.228210,179.239777 696.100037,212.712891
	C697.054321,249.346481 698.128235,285.976959 699.065613,322.610962
	C700.088135,362.571381 700.750793,402.542847 702.055542,442.493622
	C703.365601,482.603973 705.198669,522.698181 706.987793,562.791138
	C707.313538,570.090698 710.078308,576.539307 715.205200,582.114990
	C727.561279,595.552979 743.347290,602.063538 760.919006,602.828247
	C792.852112,604.217896 824.840393,604.493652 856.809937,604.851624
	C893.618896,605.263916 930.432434,605.257568 967.243958,605.454224
	C968.621521,605.461548 969.997986,605.690308 971.348938,606.698792
	C967.652466,607.017212 963.961243,607.517029 960.258545,607.625244
	C932.124207,608.447693 903.990662,609.330200 875.851135,609.927673
	C842.874817,610.627808 809.894348,611.252869 776.912537,611.512634
	C763.441284,611.618652 749.872253,611.100037 736.904236,606.792236
	C721.454407,601.659912 707.402161,594.102234 701.401062,577.857666
	C698.396362,569.724121 696.828613,560.729004 696.397095,552.034851
	C694.820129,520.263672 693.994507,488.455231 692.879333,456.182129
z"/>
<path fill="#F09A49" opacity="1.000000" stroke="none"
	d="
M907.469482,963.904907
	C907.614929,1000.456116 907.673218,1036.596924 907.724854,1072.737793
	C907.735596,1080.232910 907.772278,1087.728394 907.705750,1095.222900
	C907.631165,1103.625488 902.642822,1109.049194 895.192383,1108.968262
	C887.833801,1108.888306 883.099609,1103.719604 883.092102,1095.439087
	C883.053284,1052.800415 883.059937,1010.161682 883.083435,967.523010
	C883.087585,959.944641 886.747559,955.092346 893.056458,954.022827
	C899.769714,952.884766 904.701843,956.146179 907.469482,963.904907
z"/>
<path fill="#A67760" opacity="1.000000" stroke="none"
	d="
M362.362183,813.690063
	C358.593658,808.163147 355.042206,802.924622 351.454071,797.711365
	C351.204376,797.348572 350.682220,797.173401 349.782257,796.576172
	C345.087494,803.475952 340.435272,810.314331 335.781647,817.151733
	C334.469238,819.080078 333.231781,821.065552 331.823578,822.921448
	C327.676270,828.387085 320.754456,829.821228 315.445374,826.390503
	C310.185303,822.991455 308.403992,815.818298 311.776184,810.016113
	C314.617920,805.126648 317.916840,800.501648 321.042267,795.778687
	C326.558319,787.442993 332.018158,779.068542 337.646118,770.808899
	C343.962616,761.538757 355.471649,760.745544 361.958740,769.811340
	C371.354980,782.942749 380.098633,796.554260 388.775421,810.180786
	C392.261475,815.655457 390.330597,822.572083 385.209747,826.147888
	C380.394135,829.510559 373.659607,828.658203 369.488312,823.762329
	C366.909576,820.735474 364.858429,817.259094 362.362183,813.690063
z"/>
<path fill="#F09949" opacity="1.000000" stroke="none"
	d="
M881.514160,900.814575
	C889.303040,888.246765 903.968567,890.952148 908.984924,900.648621
	C912.111450,906.692078 910.954346,913.361267 906.166199,918.107483
	C901.459229,922.773254 894.684937,923.928772 888.687927,921.088867
	C882.836670,918.317993 879.368958,912.039124 880.192749,905.485596
	C880.377197,904.018494 880.953308,902.600647 881.514160,900.814575
z"/>
</svg>
