<?xml version="1.0" standalone="no"?>
<!DOCTYPE svg PUBLIC "-//W3C//DTD SVG 20010904//EN"
 "http://www.w3.org/TR/2001/REC-SVG-20010904/DTD/svg10.dtd">
<svg version="1.0" xmlns="http://www.w3.org/2000/svg"
 width="602.000000pt" height="604.000000pt" viewBox="0 0 602.000000 604.000000"
 preserveAspectRatio="xMidYMid meet" fill="#FFFF">
    <rect width="100%" height="100%" fill="red"/>
<g transform="translate(0.000000,604.000000) scale(0.100000,-0.100000)"
fill="#FFFF" stroke="none">
<path d="M2204 5300 c-98 -25 -150 -52 -225 -114 -108 -90 -180 -214 -198
-340 -5 -37 -11 -69 -13 -70 -2 -2 -33 -17 -71 -34 -199 -92 -324 -266 -352
-489 -4 -30 -12 -53 -18 -53 -7 0 -57 -22 -113 -50 -219 -109 -331 -279 -364
-556 -21 -170 2 -406 125 -1279 107 -760 136 -901 222 -1068 104 -202 267
-317 522 -368 155 -32 405 -39 1361 -39 923 0 1197 7 1340 34 160 31 299 90
387 166 88 76 180 227 222 365 46 149 128 648 117 710 -9 46 -62 100 -112 114
-73 20 -162 -24 -183 -92 -5 -18 -22 -113 -36 -212 -23 -159 -51 -315 -58
-321 -1 -1 -125 89 -275 202 -387 289 -453 319 -717 319 -178 0 -209 -8 -393
-98 -117 -57 -131 -62 -192 -61 -43 0 -80 7 -110 21 -25 11 -224 169 -445 353
-426 354 -458 379 -544 420 -84 41 -154 54 -276 54 -94 0 -122 -4 -189 -27
-93 -33 -136 -57 -263 -149 -52 -38 -97 -68 -98 -66 -8 8 -76 546 -90 710 -40
453 47 595 398 653 162 27 762 37 1812 31 541 -3 1030 -10 1092 -15 337 -31
476 -114 524 -311 17 -71 17 -265 0 -451 -14 -141 -13 -148 6 -180 61 -106
218 -106 272 0 20 38 35 161 46 371 8 133 -7 293 -36 385 -34 110 -114 234
-194 299 -49 40 -171 108 -227 125 -34 11 -37 15 -43 64 -28 225 -160 406
-360 493 l-64 28 -12 75 c-35 218 -213 402 -439 455 -56 13 -181 16 -865 15
-746 0 -805 -1 -871 -19z m1736 -326 c57 -32 113 -98 125 -147 l7 -27 -992 0
-992 0 6 27 c19 72 108 154 189 174 18 4 385 7 817 6 l785 -2 55 -31z m402
-517 c62 -31 117 -89 143 -151 9 -21 15 -40 13 -41 -2 -2 -122 1 -268 5 -343
12 -1957 12 -2300 0 -146 -4 -266 -7 -268 -5 -2 1 4 19 12 40 38 90 122 159
213 175 27 4 577 7 1223 6 l1175 -1 57 -28z m-2386 -1982 c29 -14 197 -146
384 -301 183 -152 379 -314 436 -359 152 -124 239 -158 404 -159 122 0 165 11
315 87 123 61 178 77 275 77 93 0 179 -21 242 -60 27 -17 176 -125 333 -242
l285 -212 -26 -27 c-68 -71 -213 -107 -479 -119 -254 -12 -1838 -12 -2090 0
-295 14 -415 48 -504 145 -60 65 -97 151 -131 306 -39 181 -102 613 -89 617 5
2 77 53 160 113 165 120 210 146 272 159 63 13 156 2 213 -25z"/>
<path d="M3890 3634 c-76 -20 -152 -69 -215 -136 -170 -183 -166 -465 10 -639
98 -97 200 -139 336 -139 347 0 568 363 412 675 -97 196 -327 297 -543 239z
m200 -313 c105 -55 109 -208 8 -272 -26 -15 -46 -19 -88 -17 -68 5 -102 27
-131 86 -66 133 80 273 211 203z"/>
</g>
</svg>
